<svg width="500" height="250" viewBox="0 0 500 250" fill="none" xmlns="http://www.w3.org/2000/svg">
<path d="M247.787 242.108L193.002 186.123H217.027H218.876L219.589 184.417L226.886 166.978L242.777 202.251C242.776 202.249 242.778 202.253 242.777 202.251C245.522 208.379 254.202 208.601 257.206 202.551C257.206 202.552 257.207 202.549 257.206 202.551L270.897 175.169L275.606 184.587L276.374 186.123H278.091H306.996L252.182 242.108L252.175 242.114C250.955 243.369 249.013 243.369 247.792 242.114L247.787 242.108ZM318.858 115.578L318.876 115.597C333.404 130.453 334.342 153.982 321.898 170.151H286.253L278.037 153.719C275.092 147.831 266.703 147.831 263.758 153.718C263.759 153.717 263.758 153.718 263.758 153.718L250.426 180.356L233.882 143.6L233.879 143.594C230.989 137.216 221.911 137.363 219.217 143.798L208.241 170.151H178.102C165.662 153.986 166.596 130.464 181.113 115.608L181.884 114.838L181.906 114.815C197.58 98.7761 223.258 98.7761 238.932 114.815L248.015 124.093L250.003 126.125L251.988 124.09L261.065 114.786C261.063 114.787 261.066 114.786 261.065 114.786C276.77 98.78 302.413 98.7778 318.086 114.774C318.09 114.778 318.093 114.781 318.096 114.784L318.858 115.578Z" fill="#FFD700"/>
<path d="M242.777 202.251L226.886 166.978L219.589 184.417L218.876 186.123H217.027H193.002L247.787 242.108L247.792 242.114C249.013 243.369 250.955 243.369 252.175 242.114L252.182 242.108L306.996 186.123H278.091H276.374L275.606 184.587L270.897 175.169L257.206 202.551M242.777 202.251C242.778 202.253 242.776 202.249 242.777 202.251ZM242.777 202.251C245.522 208.379 254.202 208.601 257.206 202.551M257.206 202.551C257.207 202.549 257.206 202.552 257.206 202.551ZM263.758 153.718C266.703 147.831 275.092 147.831 278.037 153.719L286.253 170.151H321.898C334.342 153.982 333.404 130.453 318.876 115.597L318.858 115.578L318.096 114.784C318.093 114.781 318.09 114.778 318.086 114.774C302.413 98.7778 276.77 98.78 261.065 114.786M263.758 153.718C263.758 153.718 263.759 153.717 263.758 153.718ZM263.758 153.718L250.426 180.356L233.882 143.6L233.879 143.594C230.989 137.216 221.911 137.363 219.217 143.798L208.241 170.151H178.102C165.662 153.986 166.596 130.464 181.113 115.608L181.884 114.838L181.906 114.815C197.58 98.7761 223.258 98.7761 238.932 114.815L248.015 124.093L250.003 126.125L251.988 124.09L261.065 114.786M261.065 114.786C261.066 114.786 261.063 114.787 261.065 114.786Z" stroke="black"/>
<path d="M65.1477 12.0226C64.5689 14.1348 64.2794 15.9722 64.2794 17.5347C64.2794 18.3449 64.1928 19.6036 64.0189 21.3108C63.8744 22.989 63.8022 24.2332 63.8022 25.0434C63.8022 27.7922 63.6572 31.8721 63.3678 37.283C63.0789 42.6939 62.9339 46.7737 62.9339 49.5226C62.9339 51.6348 63.0933 54.7888 63.4116 58.9844C63.73 63.18 63.8889 66.3339 63.8889 68.4461C63.8889 70.0378 63.3244 71.3833 62.1961 72.4828C61.0677 73.5822 59.6644 74.1322 57.9861 74.1322C56.2789 74.1322 54.8032 73.5822 53.559 72.4828C52.3148 71.4122 51.6927 70.0956 51.6927 68.5328C51.6927 66.4206 51.5914 63.2522 51.3889 59.0278C51.2152 54.8032 51.1284 51.6348 51.1284 49.5226C51.1284 47.8733 51.1574 46.4121 51.2152 45.1389C46.6724 45.3414 41.059 46.0503 34.375 47.2656C28.8194 48.2783 23.2639 49.3056 17.7083 50.3472C17.6504 52.3148 17.4479 55.5989 17.1006 60.1994C16.8113 64.2506 16.6666 67.5639 16.6666 70.1389C16.6666 71.7306 16.1024 73.0756 14.9739 74.1756C13.8455 75.275 12.4421 75.8244 10.7639 75.8244C9.08564 75.8244 7.68225 75.275 6.55381 74.1756C5.42532 73.0756 4.86108 71.7306 4.86108 70.1389C4.86108 67.2167 5.10703 62.8472 5.59892 57.0311C6.11975 51.2153 6.3802 46.8461 6.3802 43.9236C6.3802 40.2199 6.46697 34.6499 6.64058 27.2136C6.8142 19.7483 6.90103 14.1638 6.90103 10.4601C6.90103 8.86861 7.46525 7.52317 8.59375 6.42361C9.72219 5.32407 11.1255 4.7743 12.8038 4.7743C14.482 4.7743 15.8854 5.32407 17.0139 6.42361C18.1423 7.52317 18.7066 8.86861 18.7066 10.4601C18.7066 12.6592 18.6198 15.9722 18.4461 20.3993C18.3015 24.7974 18.2291 28.0961 18.2291 30.2951C18.2291 31.0185 18.1279 32.4074 17.9253 34.4618C17.7517 36.3716 17.6794 37.8328 17.7083 38.8455L34.375 35.7205C40.8854 34.5631 46.4988 33.8976 51.2152 33.7239C51.331 31.7853 51.5191 26.5769 51.7795 18.0989C51.8374 15.8709 52.5173 13.3102 53.8194 10.4167C55.4398 6.85767 57.2772 5.07812 59.3316 5.07812C60.865 5.07812 62.225 5.5845 63.4116 6.59722C64.6844 7.69678 65.3211 9.07117 65.3211 10.7205C65.3211 11.1545 65.2633 11.5886 65.1477 12.0226ZM94.6177 74.2189C87.7028 74.2189 82.0455 72.5694 77.6477 69.2711C72.7866 65.625 70.3561 60.4889 70.3561 53.8628C70.3561 46.5422 72.28 40.3501 76.1283 35.2864C80.4111 29.6731 86.1833 26.8663 93.4461 26.8663C98.4811 26.8663 102.662 27.6765 105.989 29.2969C110.359 31.4381 112.543 34.7656 112.543 39.2795C112.543 42.4624 110.764 45.2836 107.205 47.7431C105.584 48.8716 102.329 50.5208 97.4394 52.691L82.8122 59.1578C84.2011 60.6628 85.8794 61.7911 87.8472 62.5433C89.815 63.2956 92.0716 63.6717 94.6177 63.6717C98.4955 63.6717 101.779 62.8761 104.471 61.2844C106.872 59.8667 108.796 59.1578 110.243 59.1578C113.252 59.1578 114.757 60.6194 114.757 63.5417C114.757 66.84 112.341 69.5311 107.509 71.6144C103.458 73.3506 99.1611 74.2189 94.6177 74.2189ZM93.4461 37.3698C90.755 37.3698 88.455 38.2668 86.545 40.0608C84.6355 41.8547 83.1016 44.5457 81.9444 48.1337C85.2139 46.7158 88.4694 45.3125 91.71 43.9236C95.6161 42.1586 98.7266 40.5237 101.042 39.0191C99.1027 37.9196 96.5711 37.3698 93.4461 37.3698ZM153.125 37.283C152.517 37.283 151.794 37.2685 150.955 37.2396C150.144 37.1817 149.436 37.1528 148.828 37.1528C147.642 37.1528 146.267 37.2685 144.705 37.5C145.226 49.1898 145.486 56.8289 145.486 60.4167C145.486 60.7928 145.501 61.5017 145.529 62.5433C145.558 63.5561 145.573 64.3806 145.573 65.0172C145.573 71.6722 143.475 75 139.279 75C137.688 75 136.314 74.5083 135.156 73.5244C133.883 72.4828 133.247 71.1806 133.247 69.6178C133.247 68.5767 133.29 67.0139 133.377 64.9306C133.463 62.8472 133.507 61.2844 133.507 60.2433C133.507 56.7417 133.247 49.2477 132.726 37.7604C130.932 37.6736 128.212 37.4421 124.566 37.066C120.949 36.6609 119.141 34.7801 119.141 31.4236C119.141 29.8032 119.691 28.4288 120.79 27.3003C121.889 26.1719 123.307 25.6077 125.043 25.6077C126.114 25.6077 128.573 25.7812 132.422 26.1284C132.393 25.2026 132.321 23.669 132.205 21.5278C132.089 19.6759 132.031 18.2436 132.031 17.2309C132.031 15.6106 132.624 14.2651 133.811 13.1944C134.997 12.1238 136.429 11.5886 138.108 11.5886C142.39 11.5886 144.531 15.191 144.531 22.3958L144.444 25.9549C146.238 25.6944 147.699 25.5642 148.828 25.5642C152.156 25.5642 154.427 25.7812 155.642 26.2153C157.957 27.0254 159.114 28.7905 159.114 31.5104C159.114 33.1597 158.551 34.5342 157.422 35.6337C156.293 36.7332 154.861 37.283 153.125 37.283ZM256.467 46.7014C254.499 55.3241 250.536 62.225 244.574 67.4044C238.527 72.6128 231.438 75.2172 223.307 75.2172C215.611 75.2172 209.838 73.1917 205.989 69.1406C202.141 65.0606 200.217 58.9556 200.217 50.8247C200.217 43.4172 202.04 35.8218 205.686 28.0382C209.332 20.2546 214.019 13.9468 219.748 9.11455C223.77 5.72917 228.082 4.03645 232.682 4.03645C235.489 4.03645 239.308 5.04919 244.141 7.07467C249.87 9.47628 252.734 12.0371 252.734 14.7569C252.734 16.3194 252.141 17.7228 250.955 18.967C249.768 20.1823 248.307 20.7899 246.571 20.7899C245.703 20.7899 243.779 19.9797 240.799 18.3594C237.847 16.7101 235.142 15.8854 232.682 15.8854C230.078 15.8854 226.562 18.6921 222.136 24.3056C215.683 32.4653 212.457 41.305 212.457 50.8247C212.457 55.6567 213.166 58.9411 214.583 60.6772C216.088 62.5 218.996 63.4117 223.307 63.4117C227.734 63.4117 231.626 62.1528 234.983 59.6356C238.542 56.9733 241.175 53.0961 242.882 48.0034C236.169 48.5243 230.324 49.8987 225.347 52.1267C224.45 52.5318 223.553 52.7344 222.656 52.7344C220.862 52.7344 219.372 52.0689 218.186 50.7378C217.115 49.5515 216.58 48.206 216.58 46.7014C216.58 42.2743 221.817 39.1782 232.292 37.4132C238.194 36.4294 245.081 35.9375 252.951 35.9375C254.688 35.9375 256.134 36.5017 257.292 37.6302C258.478 38.7587 259.071 40.1476 259.071 41.7969C259.071 43.9092 258.203 45.544 256.467 46.7014ZM281.25 74.7828C275.897 74.7828 271.296 72.9456 267.448 69.2711C263.223 65.2489 261.01 59.8811 260.807 53.1684C260.605 46.7737 262.356 41.0735 266.059 36.0677C270.457 30.1649 276.577 27.2136 284.418 27.2136C290.206 27.2136 294.806 29.5283 298.221 34.158C301.288 38.3247 302.821 43.4896 302.821 49.6528C302.821 56.3656 301.027 62.095 297.439 66.84C293.417 72.1356 288.021 74.7828 281.25 74.7828ZM283.854 38.6719C280.295 38.6429 277.488 40.2633 275.434 43.533C273.698 46.2818 272.83 49.4936 272.83 53.1684C272.83 56.6406 273.814 59.3028 275.781 61.1544C277.344 62.63 279.167 63.3678 281.25 63.3678C283.767 63.3678 285.952 62.5144 287.804 60.8072C289.916 58.8106 291.044 56.1056 291.189 52.691C291.566 43.3738 289.121 38.7008 283.854 38.6719ZM348.177 47.1354C348.177 49.0741 348.192 51.9966 348.221 55.9028C348.249 59.8089 348.264 62.7317 348.264 64.67C348.264 65.2778 348.307 66.1894 348.394 67.4044C348.51 68.5911 348.568 69.4878 348.568 70.0956C348.568 71.7161 347.974 73.0467 346.788 74.0883C345.631 75.1589 344.198 75.6944 342.491 75.6944C340.089 75.6944 338.339 74.6094 337.239 72.4394C333.536 73.7994 329.702 74.4789 325.738 74.4789C321.629 74.4789 318.171 73.6111 315.364 71.875C312.211 69.8783 310.33 66.9706 309.722 63.1511C308.594 55.9172 308.029 49.4502 308.029 43.75C308.029 39.9884 308.463 35.6916 309.332 30.8594C309.911 27.5897 311.863 25.9549 315.191 25.9549C316.869 25.9549 318.302 26.4902 319.488 27.5608C320.674 28.6024 321.267 29.9334 321.267 31.5538C321.267 32.8269 321.051 34.8235 320.616 37.5434C320.211 40.2633 320.009 42.3322 320.009 43.75C320.009 47.8299 320.139 51.4033 320.399 54.4705C320.689 57.5089 321.108 60.0261 321.658 62.0228C322.381 62.3411 323.076 62.5867 323.741 62.7606C324.436 62.9339 325.101 63.0211 325.738 63.0211C328.949 63.0211 332.48 62.5578 336.328 61.6322C336.328 59.4039 336.314 56.8722 336.284 54.0364C336.227 50.6511 336.198 48.2205 336.198 46.7448C336.198 40.8131 336.473 35.6916 337.023 31.3802C337.457 27.9369 339.424 26.2153 342.926 26.2153C344.633 26.2153 346.094 26.7506 347.309 27.8212C348.524 28.8918 349.088 30.2373 349.002 31.8577C348.452 42.8819 348.177 47.9746 348.177 47.1354ZM388.194 28.6024C388.571 18.7356 389.019 11.9213 389.54 8.15972C390.032 4.74537 391.913 3.03819 395.182 3.03819C396.889 3.03819 398.264 3.58796 399.306 4.6875C400.347 5.78705 400.868 7.1325 400.868 8.72394C400.868 12.9196 400.536 19.1696 399.87 27.4739C399.233 35.7783 398.915 42.0283 398.915 46.2239C398.915 56.4672 399.248 63.3244 399.913 66.7967C400 67.26 400.043 67.6794 400.043 68.0556C400.043 69.6472 399.464 70.9633 398.307 72.005C397.15 73.0178 395.804 73.5244 394.271 73.5244C392.129 73.5244 390.538 72.5694 389.497 70.66C387.529 71.8461 385.489 72.7283 383.377 73.3072C381.264 73.915 379.08 74.2189 376.823 74.2189C370.342 74.2189 364.959 72.15 360.677 68.0122C356.308 63.7878 354.123 58.4056 354.123 51.8663C354.123 44.0828 356.322 37.8038 360.721 33.0295C365.119 28.2263 370.862 25.8247 377.951 25.8247C380.122 25.8247 382.06 26.0561 383.767 26.5191C385.474 26.9821 386.95 27.6765 388.194 28.6024ZM387.327 42.2743C386.372 40.4514 385.127 39.0914 383.594 38.1944C382.06 37.2974 380.237 36.8489 378.125 36.8489C373.843 36.8489 370.631 38.0932 368.489 40.5816C366.348 43.0411 365.278 46.7448 365.278 51.6927C365.278 54.8177 366.435 57.4944 368.75 59.7222C371.065 61.95 373.756 63.0644 376.823 63.0644C379.051 63.0644 380.744 62.8039 381.901 62.2828C382.682 61.9356 384.013 61.01 385.894 59.505C386.386 59.1 386.863 58.6517 387.327 58.16C387.268 56.7711 387.268 51.4757 387.327 42.2743ZM430.556 74.2189C423.64 74.2189 417.983 72.5694 413.585 69.2711C408.724 65.625 406.293 60.4889 406.293 53.8628C406.293 46.5422 408.218 40.3501 412.066 35.2864C416.348 29.6731 422.121 26.8663 429.384 26.8663C434.418 26.8663 438.599 27.6765 441.927 29.2969C446.296 31.4381 448.481 34.7656 448.481 39.2795C448.481 42.4624 446.701 45.2836 443.142 47.7431C441.522 48.8716 438.267 50.5208 433.377 52.691L418.75 59.1578C420.139 60.6628 421.817 61.7911 423.784 62.5433C425.752 63.2956 428.009 63.6717 430.556 63.6717C434.433 63.6717 437.717 62.8761 440.408 61.2844C442.809 59.8667 444.734 59.1578 446.181 59.1578C449.19 59.1578 450.694 60.6194 450.694 63.5417C450.694 66.84 448.278 69.5311 443.446 71.6144C439.395 73.3506 435.098 74.2189 430.556 74.2189ZM429.384 37.3698C426.693 37.3698 424.392 38.2668 422.483 40.0608C420.573 41.8547 419.039 44.5457 417.882 48.1337C421.152 46.7158 424.407 45.3125 427.648 43.9236C431.554 42.1586 434.664 40.5237 436.979 39.0191C435.04 37.9196 432.509 37.3698 429.384 37.3698ZM492.622 75.3039C489.062 75.3039 487.081 73.5533 486.676 70.0522C486.27 67.0717 485.865 64.0772 485.46 61.0678C485.026 57.885 484.809 54.8901 484.809 52.0833C484.809 51.331 484.852 50.0434 484.939 48.2205C485.055 46.3976 485.113 45.1099 485.113 44.3577C485.113 44.1551 485.142 43.6487 485.199 42.8386C485.258 41.9994 485.287 41.3194 485.287 40.7986C485.287 38.397 484.664 37.1962 483.42 37.1962C480.758 37.1962 478.139 38.7587 475.564 41.8837C473.018 44.9797 471.022 48.9149 469.574 53.6892C469.517 54.6441 469.387 55.9172 469.184 57.5089C469.011 58.8106 468.923 60.0839 468.923 61.3283C468.923 62.1383 469.011 63.3678 469.184 65.0172C469.387 66.6378 469.488 67.8528 469.488 68.6633C469.488 70.3122 468.909 71.6722 467.752 72.7433C466.623 73.8428 465.191 74.3922 463.455 74.3922C461.719 74.3922 460.287 73.8428 459.158 72.7433C458.029 71.6722 457.466 70.3122 457.466 68.6633C457.466 67.8528 457.378 66.6378 457.205 65.0172C457.031 63.3678 456.944 62.1383 456.944 61.3283C456.944 58.5506 457.147 54.6875 457.552 49.7396C457.957 44.7917 458.16 40.9288 458.16 38.1511C458.16 37.283 458.102 35.9954 457.986 34.2882C457.899 32.5521 457.856 31.2644 457.856 30.4253C457.856 28.805 458.434 27.4739 459.592 26.4323C460.778 25.3617 462.225 24.8264 463.932 24.8264C467.723 24.8264 469.748 27.0978 470.009 31.6406L470.052 32.1181C474.277 27.8646 478.733 25.7378 483.42 25.7378C488.889 25.7378 492.665 28.0237 494.748 32.5955C496.137 35.6626 496.832 40.2488 496.832 46.3542V49.4358C496.803 50.7668 496.788 51.7072 496.788 52.2569C496.788 54.5139 497.092 57.4217 497.699 60.9811C498.336 64.54 498.654 67.4333 498.654 69.6617C498.654 71.2817 498.075 72.6272 496.918 73.6978C495.761 74.7683 494.329 75.3039 492.622 75.3039Z" fill="black"/>
<path d="M159.212 130.306C158.489 132.946 158.127 135.243 158.127 137.196C158.127 138.209 158.019 139.782 157.802 141.916C157.621 144.014 157.531 145.569 157.531 146.582C157.531 150.018 157.349 155.118 156.988 161.882C156.626 168.645 156.446 173.745 156.446 177.181C156.446 179.821 156.644 183.764 157.042 189.008C157.44 194.253 157.639 198.195 157.639 200.836C157.639 202.825 156.933 204.507 155.523 205.881C154.112 207.256 152.358 207.943 150.261 207.943C148.127 207.943 146.282 207.256 144.727 205.881C143.171 204.543 142.394 202.897 142.394 200.944C142.394 198.304 142.267 194.343 142.014 189.062C141.797 183.782 141.688 179.821 141.688 177.181C141.688 175.119 141.724 173.293 141.797 171.701C136.118 171.954 129.102 172.841 120.747 174.36C113.802 175.626 106.858 176.91 99.9134 178.212C99.8412 180.671 99.5878 184.777 99.1539 190.527C98.7923 195.591 98.6112 199.732 98.6112 202.951C98.6112 204.941 97.9056 206.623 96.4951 207.997C95.0845 209.371 93.3306 210.058 91.2328 210.058C89.135 210.058 87.3806 209.371 85.97 207.997C84.5595 206.623 83.8545 204.941 83.8545 202.951C83.8545 199.298 84.1617 193.837 84.7767 186.567C85.4278 179.297 85.7528 173.836 85.7528 170.182C85.7528 165.553 85.8617 158.59 86.0784 149.294C86.2956 139.963 86.4039 132.982 86.4039 128.353C86.4039 126.363 87.1095 124.682 88.5201 123.307C89.9306 121.933 91.685 121.246 93.7828 121.246C95.8806 121.246 97.6345 121.933 99.0451 123.307C100.456 124.682 101.161 126.363 101.161 128.353C101.161 131.102 101.053 135.243 100.836 140.777C100.654 146.274 100.564 150.398 100.564 153.147C100.564 154.051 100.438 155.787 100.184 158.355C99.9673 160.742 99.8773 162.569 99.9134 163.834L120.747 159.928C128.884 158.482 135.901 157.65 141.797 157.433C141.942 155.009 142.177 148.499 142.502 137.902C142.574 135.117 143.424 131.916 145.052 128.299C147.078 123.85 149.374 121.626 151.942 121.626C153.859 121.626 155.559 122.258 157.042 123.524C158.633 124.899 159.429 126.617 159.429 128.678C159.429 129.221 159.357 129.763 159.212 130.306Z" fill="black"/>
<path d="M384.332 166.439C384.006 171.973 381.492 174.739 376.791 174.739C372.233 174.739 369.954 172.388 369.954 167.687L369.683 162.207C361.545 163.509 355.722 167.687 352.213 174.739L352.268 202.029C352.268 204.091 351.562 205.791 350.152 207.129C348.741 208.503 346.951 209.191 344.781 209.191C342.538 209.191 340.802 208.467 339.572 207.021C338.415 205.718 337.836 204.054 337.836 202.029V166.493C337.836 165.372 337.873 163.708 337.945 161.502C338.017 159.259 338.053 157.577 338.053 156.456C338.053 154.431 338.65 152.749 339.844 151.411C341.073 150.036 342.81 149.349 345.052 149.349C349.067 149.349 351.454 151.411 352.213 155.534C358.616 150.759 365.723 148.372 373.535 148.372C380.769 148.372 384.386 153.183 384.386 162.804C384.386 164.648 384.368 165.86 384.332 166.439ZM430.556 161.882C429.796 161.882 428.892 161.863 427.843 161.827C426.83 161.755 425.944 161.719 425.185 161.719C423.702 161.719 421.983 161.863 420.031 162.153C420.682 176.765 421.007 186.314 421.007 190.799C421.007 191.269 421.025 192.155 421.061 193.457C421.097 194.723 421.116 195.754 421.116 196.549C421.116 204.868 418.493 209.028 413.249 209.028C411.26 209.028 409.541 208.413 408.095 207.183C406.503 205.881 405.707 204.253 405.707 202.301C405.707 200.998 405.762 199.045 405.87 196.441C405.979 193.837 406.033 191.884 406.033 190.582C406.033 186.205 405.707 176.837 405.057 162.478C402.814 162.37 399.414 162.081 394.857 161.61C390.336 161.104 388.075 158.753 388.075 154.557C388.075 152.532 388.762 150.814 390.137 149.403C391.511 147.993 393.283 147.287 395.453 147.287C396.792 147.287 399.866 147.504 404.677 147.938C404.641 146.781 404.55 144.864 404.406 142.188C404.261 139.873 404.188 138.082 404.188 136.817C404.188 134.791 404.93 133.109 406.413 131.771C407.896 130.433 409.686 129.763 411.784 129.763C417.137 129.763 419.813 134.267 419.813 143.273L419.705 147.721C421.947 147.396 423.774 147.233 425.185 147.233C429.344 147.233 432.183 147.504 433.702 148.047C436.596 149.059 438.043 151.266 438.043 154.666C438.043 156.727 437.337 158.446 435.927 159.82C434.516 161.194 432.726 161.882 430.556 161.882Z" fill="black"/>
</svg>
